<?xml version="1.0" encoding="UTF-8" standalone="no"?><!DOCTYPE svg PUBLIC "-//W3C//DTD SVG 1.1//EN" "http://www.w3.org/Graphics/SVG/1.1/DTD/svg11.dtd"><svg width="100%" height="100%" viewBox="0 0 512 512" version="1.1" xmlns="http://www.w3.org/2000/svg" xmlns:xlink="http://www.w3.org/1999/xlink" xml:space="preserve" xmlns:serif="http://www.serif.com/" style="fill-rule:evenodd;clip-rule:evenodd;stroke-linejoin:round;stroke-miterlimit:2;">
<path class="mid" d="M0,336.505l0,-62.901c0,-11.634 2.713,-23.107 7.923,-33.509c5.213,-10.407 7.927,-21.887 7.927,-33.526l-0,-80.572c-0,-3.398 2.755,-6.153 6.153,-6.153l137.542,0c8.971,0 17.374,4.394 22.491,11.763l17.45,25.125c41.417,59.633 103.886,101.312 174.797,116.625l105.1,22.696c19.03,4.11 32.617,20.96 32.617,40.453" style="fill:#0061A0;fill-rule:nonzero;"/>
<path d="M496.82,392.156l-478.604,0c-10.06,0 -18.216,-8.166 -18.216,-18.239l-0,-37.413l512,-0l0,40.453c0,8.395 -6.796,15.199 -15.18,15.199Z" style="fill:#f2edec;fill-rule:nonzero;"/>
<path d="M335.578,356.419l-335.578,0l0,15.823l335.578,0c4.364,0 7.901,-3.542 7.901,-7.911c-0,-4.369 -3.537,-7.912 -7.901,-7.912Z" style="fill:#57676e;fill-rule:nonzero;"/>
<path class="dark" d="M18.474,246.66l-10.549,-6.57c-5.211,10.404 -7.925,21.882 -7.925,33.522l-0,61.107l90.815,1.785l-0.93,-2.492c-13.513,-36.217 -38.624,-66.933 -71.411,-87.352Z" style="fill:#00558C;fill-rule:nonzero;"/>
<path d="M479.383,296.052l-69.709,-15.053l-0,55.506l102.326,0c0,-19.494 -13.586,-36.344 -32.617,-40.453Z" style="fill:#f2edec;fill-rule:nonzero;"/><g>
<path class="dark" d="M409.466,280.953l-35.182,-7.597c-70.911,-15.313 -133.38,-56.993 -174.797,-116.625l-17.45,-25.125c-5.118,-7.369 -13.513,-11.762 -22.477,-11.763l-42.578,-0c16.624,31.831 49.293,84.216 107.979,130.515c73.05,57.632 147.624,75.236 184.713,81.399l0,-49.814l-0.208,-0.99Z" style="fill:#00558C;
fill-rule:nonzero;"/>
<path d="M409.674,331.758l-0,4.747l-0,-4.747Z" style="fill:#5fb87d;fill-rule:nonzero;"/></g>
<path d="M94.876,177.908l9.828,19.94c0.148,0.3 0.434,0.508 0.764,0.556l21.977,3.198c0.832,0.121 1.165,1.145 0.563,1.733l-15.903,15.521c-0.239,0.233 -0.348,0.57 -0.292,0.9l3.754,21.916c0.142,0.83 -0.728,1.463 -1.473,1.071l-19.657,-10.347c-0.296,-0.156 -0.649,-0.156 -0.945,-0l-19.657,10.347c-0.745,0.392 -1.615,-0.241 -1.473,-1.071l3.754,-21.916c0.056,-0.33 -0.053,-0.666 -0.292,-0.9l-15.903,-15.521c-0.602,-0.588 -0.27,-1.612 0.563,-1.733l21.977,-3.198c0.331,-0.048 0.616,-0.256 0.764,-0.556l9.828,-19.94c0.375,-0.757 1.45,-0.757 1.823,-0Z" style="fill:#002B49;fill-rule:nonzero;"/><g>
<path d="M195.12,193.814l21.041,-14.119c0.23,-0.154 0.449,-0.319 0.657,-0.492c-3.418,-4.009 -6.733,-8.118 -9.938,-12.327l-20.557,13.794c-3.626,2.433 -4.595,7.347 -2.166,10.977c1.525,2.278 4.025,3.508 6.571,3.508c1.513,0.001 3.042,-0.435 4.392,-1.341Z" style="fill:#f2edec;fill-rule:nonzero;"/>
<path d="M239.183,202.63c-3.844,-3.593 -7.58,-7.308 -11.23,-11.117c-0.047,0.046 -0.098,0.087 -0.144,0.135l-16.427,16.99c-3.035,3.139 -2.954,8.148 0.181,11.187c1.535,1.487 3.515,2.227 5.495,2.227c2.066,0 4.129,-0.806 5.678,-2.408l16.427,-16.99c0.007,-0.008 0.013,-0.015 0.02,-0.024Z" style="fill:#f2edec;fill-rule:nonzero;"/><path d="M167.791,165.092c0.961,0 1.938,-0.177 2.886,-0.55l25.143,-9.887c0.586,-0.23 1.124,-0.53 1.62,-0.874l-9.144,-13.166l-23.394,9.199c-4.062,1.597 -6.062,6.189 -4.467,10.256c1.222,3.118 4.201,5.022 7.356,5.022Z" style="fill:#f2edec;fill-rule:nonzero;"/><path d="M237.937,240.674c1.477,1.232 3.27,1.832 5.052,1.832c2.264,0 4.513,-0.97 6.075,-2.848l13.293,-15.982c0.277,-0.333 0.513,-0.686 0.726,-1.047c-4.174,-3.127 -8.265,-6.368 -12.267,-9.722c-0.21,0.202 -0.412,0.414 -0.602,0.643l-13.293,15.982c-2.792,3.357 -2.337,8.346 1.016,11.142Z" style="fill:#f2edec;fill-rule:nonzero;"/><path d="M265.328,262.172c1.226,0.692 2.559,1.021 3.872,1.021c2.759,0 5.439,-1.45 6.891,-4.028l11.345,-20.156c-4.519,-2.712 -8.955,-5.557 -13.317,-8.513c-0.1,0.153 -0.203,0.304 -0.294,0.465l-11.502,20.435c-2.141,3.806 -0.797,8.632 3.005,10.776Z" style="fill:#f2edec;fill-rule:nonzero;"/><path d="M295.105,279.648c0.845,0.288 1.703,0.424 2.548,0.424c3.288,0 6.359,-2.072 7.478,-5.363l7.561,-22.23c-4.786,-2.255 -9.511,-4.628 -14.158,-7.141c-0.184,0.353 -0.352,0.719 -0.484,1.108l-7.879,23.162c-1.405,4.135 0.803,8.631 4.934,10.04Z" style="fill:#f2edec;fill-rule:nonzero;"/><path d="M327.091,294.497c0.586,0.133 1.173,0.196 1.75,0.196c3.61,0 6.869,-2.493 7.7,-6.168l5.456,-24.153c-4.953,-1.696 -9.845,-3.535 -14.683,-5.494c-0.31,0.594 -0.557,1.232 -0.711,1.917l-5.475,24.239c-0.963,4.263 1.707,8.5 5.963,9.463Z" style="fill:#f2edec;fill-rule:nonzero;"/><path d="M355.01,272.614l-1.58,21.086c-0.327,4.357 2.936,8.154 7.287,8.481c0.202,0.015 0.401,0.023 0.6,0.023c4.095,-0 7.56,-3.165 7.87,-7.32l1.58,-21.086c0.032,-0.423 0.02,-0.838 -0.014,-1.248c-4.86,-1.114 -9.68,-2.348 -14.454,-3.707c-0.721,1.089 -1.184,2.373 -1.289,3.771Z" style="fill:#f2edec;fill-rule:nonzero;"/></g></svg>