<?xml version="1.0" encoding="UTF-8" standalone="no"?><!DOCTYPE svg PUBLIC "-//W3C//DTD SVG 1.1//EN" "http://www.w3.org/Graphics/SVG/1.1/DTD/svg11.dtd"><svg width="100%" height="100%" viewBox="0 0 512 512" version="1.1" xmlns="http://www.w3.org/2000/svg" xmlns:xlink="http://www.w3.org/1999/xlink" xml:space="preserve" xmlns:serif="http://www.serif.com/" style="fill-rule:evenodd;clip-rule:evenodd;stroke-linejoin:round;stroke-miterlimit:2;"><path  class="light" d="M511.968,322.022l0,-26.542c0,-25.991 -22.806,-46.055 -48.523,-42.69c-72.395,9.474 -145.311,-13.172 -199.673,-62.011l-22.002,-19.767c-0.358,-0.321 -0.901,-0.317 -1.253,0.011c-58.153,54.188 -133.749,85.713 -213.095,88.865l-21.071,0.837c-3.548,0.141 -6.351,3.064 -6.351,6.622l0,56.21l511.968,-1.535Z" style="fill:#038c3e;fill-rule:nonzero;"/><path class="mid" d="M31.526,323.462l0,-63.783c-1.368,0.071 -2.734,0.155 -4.105,0.209l-21.071,0.837c-3.547,0.141 -6.35,3.064 -6.35,6.622l0,56.21l31.526,-0.095Z" style="fill:#067335;fill-rule:nonzero;"/><path class="mid" d="M0,290.761l0,28.806c0,23.477 17.305,42.898 39.829,46.165c3.367,0.488 6.392,-2.119 6.391,-5.528l0,-2.003c-0.001,-4.369 3.359,-8.179 7.716,-8.31c4.509,-0.135 8.205,3.486 8.205,7.974l0,2.75c0,3.079 2.484,5.576 5.556,5.579c7.647,0.009 21.335,0.019 28.988,0.024c3.077,0.002 5.567,-2.501 5.566,-5.584c0,-1.362 -0.001,-2.436 -0.001,-2.436c0,-4.368 3.36,-8.177 7.717,-8.308c4.508,-0.135 8.205,3.486 8.205,7.974c0,0 0,1.245 -0.001,2.774c-0.001,3.082 2.492,5.584 5.568,5.584l30.069,0c1.314,0 2.603,-0.329 3.773,-0.927c29.867,-15.249 65.222,-15.456 95.308,-0.469l1.071,0.533c1.138,0.567 2.392,0.862 3.663,0.862c0,0 4.58,-0.009 8.456,-0.018c2.934,-0.007 5.307,-2.392 5.307,-5.332l0,-3.014c0,-4.368 3.36,-8.178 7.717,-8.308c4.508,-0.135 8.205,3.486 8.205,7.974l0,2.557c0,3.373 2.724,6.108 6.09,6.11c7.823,0.003 21.274,0.003 28.703,0c2.938,-0.001 5.317,-2.388 5.317,-5.332l0,-2.659c0,-4.368 3.36,-8.178 7.717,-8.308c4.508,-0.135 8.205,3.486 8.205,7.974c0,0 0,1.382 -0.001,3.022c-0.001,2.946 2.382,5.336 5.322,5.336l33.619,0c2.939,0 5.322,-2.388 5.321,-5.334l0,-0.918c-0.001,-4.369 3.358,-8.18 7.716,-8.311c4.509,-0.135 8.205,3.486 8.205,7.974l0,1.224c0,2.944 2.375,5.331 5.312,5.332c9.116,0.004 27.634,0.004 36.749,0c2.938,-0.001 5.312,-2.388 5.312,-5.332l0,-0.535c0,-4.368 3.36,-8.178 7.717,-8.308c4.508,-0.135 8.205,3.486 8.205,7.974l0.009,0.592c0.05,3.208 2.893,5.63 6.066,5.205c21.681,-2.905 38.979,-21.348 39.076,-43.764l0.032,0c-355.241,-0 -216.732,-31.261 -512,-31.261Z" style="fill:#067335;fill-rule:nonzero;"/><path class="dark" d="M47.053,354.539c-9.656,-8.547 -15.746,-21.046 -15.746,-34.972l-0,-28.677c-9.867,-0.084 -20.278,-0.129 -31.307,-0.129l-0,28.806c-0,23.477 17.305,42.898 39.829,46.165c3.367,0.488 6.392,-2.119 6.391,-5.528l-0.001,-2.003c0.001,-1.299 0.303,-2.545 0.834,-3.662Z" style="fill:#05592a;fill-rule:nonzero;"/><path class="mid" d="M160.156,204.014c-2.594,-0.303 -5.128,-0.258 -7.564,0.09c-4.798,0.686 -9.678,-0.444 -13.774,-3.04l-85.525,-54.193c-3.333,-2.098 -7.733,-1.09 -9.826,2.25l-10.849,17.313c-2.093,3.34 -1.088,7.749 2.245,9.847l85.529,54.195c4.167,2.64 7.125,6.741 8.639,11.443c3.771,11.712 14.732,20.186 27.675,20.186c17.103,0 30.758,-14.794 28.918,-32.31c-1.407,-13.401 -12.112,-24.223 -25.468,-25.781Z" style="fill:#067335;fill-rule:nonzero;"/><path class="dark" d="M170.505,257.85c-13.799,2.418 -30.377,-2.191 -32.5,-19.033c-0.887,-7.038 -4.678,-12.606 -8.845,-15.246l-59.736,-38.389c-12.332,-7.814 -18.113,-22.791 -14.239,-36.888l0.052,-0.19l-1.945,-1.232c-3.333,-2.098 -7.733,-1.09 -9.826,2.25l-10.849,17.313c-2.093,3.34 -1.088,7.749 2.245,9.847l85.529,54.195c4.167,2.64 7.125,6.741 8.639,11.443c3.771,11.712 14.733,20.186 27.675,20.186c5.566,0 10.761,-1.574 15.182,-4.292c-0.457,0.02 -0.924,-0.044 -1.382,0.036Z" style="fill:#05592a;fill-rule:nonzero;"/><g><ellipse class="mid" cx="270.51" cy="232.96" rx="7.961" ry="7.978" style="fill:#067335;"/><ellipse class="mid" cx="241.15" cy="209.08" rx="7.961" ry="7.978" style="fill:#067335;"/><ellipse class="mid"  cx="306.06" cy="252.26" rx="7.961" ry="7.978" style="fill:#067335;"/><ellipse class="mid" cx="243.81" cy="282.71" rx="7.961" ry="7.978" style="fill:#067335;"/><ellipse class="mid" cx="287.31" cy="290.69" rx="7.961" ry="7.978" style="fill:#067335;"/><ellipse class="mid" cx="342.11" cy="266.76" rx="7.961" ry="7.978" style="fill:#067335;"/><ellipse class="mid" cx="380.44" cy="276.2" rx="7.961" ry="7.978" style="fill:#067335;"/><ellipse class="mid" cx="419.65" cy="278.68" rx="7.961" ry="7.978" style="fill:#067335;"/><ellipse class="mid" cx="458.86" cy="278.64" rx="7.961" ry="7.978" style="fill:#067335;"/><ellipse class="mid" cx="318.27" cy="282.71" rx="7.961" ry="7.978" style="fill:#067335;"/><ellipse class="mid" cx="358.03" cy="294.55" rx="7.961" ry="7.978" style="fill:#067335;"/><ellipse class="mid" cx="398.58" cy="296.76" rx="7.961" ry="7.978" style="fill:#067335;"/><ellipse class="mid" cx="439.98" cy="298" rx="7.961" ry="7.978" style="fill:#067335;"/><ellipse class="mid" cx="483.5" cy="298" rx="7.961" ry="7.978" style="fill:#067335;"/><ellipse class="mid" cx="274.61" cy="265.03" rx="7.961" ry="7.978" style="fill:#067335;"/><ellipse class="mid" cx="235.84" cy="247.53" rx="7.961" ry="7.978" style="fill:#067335;"/></g><ellipse class="light" cx="156.71" cy="232.96" rx="15.04" ry="15.07" style="fill:#038c3e;"/></svg>