<?xml version="1.0" encoding="UTF-8" standalone="no"?><!DOCTYPE svg PUBLIC "-//W3C//DTD SVG 1.1//EN" "http://www.w3.org/Graphics/SVG/1.1/DTD/svg11.dtd"><svg width="100%" height="100%" viewBox="0 0 512 512" version="1.1" xmlns="http://www.w3.org/2000/svg" xmlns:xlink="http://www.w3.org/1999/xlink" xml:space="preserve" xmlns:serif="http://www.serif.com/" style="fill-rule:evenodd;clip-rule:evenodd;stroke-linejoin:round;stroke-miterlimit:2;"><path d="M40.699,93.363c-4.218,0 -7.761,-3.243 -8.108,-7.483c-0.032,-0.33 -1.249,-12.133 -10.046,-21.453c-2.523,-2.672 -4.983,-4.259 -7.589,-5.939c-4.452,-2.872 -9.499,-6.127 -12.639,-13.725c-1.466,-3.541 -4.399,-12.821 0.029,-22.416c4.028,-8.73 14.394,-17.079 25.682,-15.353c11.283,1.724 20.818,12.396 20.818,23.305l0,54.913c0,4.38 -3.457,7.977 -7.829,8.146c-0.106,0.003 -0.212,0.005 -0.318,0.005Zm-15.657,-70.291c-2.689,0 -6.387,2.8 -7.916,6.113c-1.777,3.849 -0.27,8.122 0.233,9.34c1.136,2.75 2.536,3.754 6.412,6.255c2.526,1.629 5.574,3.594 8.791,6.632l0,-21.113c0,-2.559 -3.524,-6.657 -6.992,-7.188c-0.171,-0.026 -0.347,-0.039 -0.528,-0.039Z" style="fill:#333;fill-rule:nonzero;"/><path  class="mid" d="M461.586,386.084l-35.531,0c-98.815,0 -178.921,-80.21 -178.921,-179.155l0,-117.923c0,-19.618 -15.883,-35.522 -35.476,-35.522l-169.107,0c-5.65,0 -10.23,4.586 -10.23,10.243l-0,224.265c-0,9.296 -3.688,18.211 -10.252,24.784c-6.565,6.573 -10.253,15.488 -10.253,24.784l-0,107.049l20.505,20.821l157.466,-0.161l72.12,25.773l226.482,-0l23.61,-17.243l0,-37.236c0,-27.879 -22.57,-50.479 -50.413,-50.479Z" style="fill:#f28241;fill-rule:nonzero;"/><path class="dark" d="M329.713,402.676l-0.623,2.43l43.969,-27.013c-72.941,-22.618 -125.926,-90.694 -125.926,-171.163l0,-117.924c0,-19.618 -15.883,-35.522 -35.476,-35.522l-169.106,0c-5.65,0 -10.23,4.586 -10.23,10.243l-0,25.744l2.414,0.562l159.231,0c9.448,0 17.107,7.669 17.107,17.129l-0,107.714c-0,82.907 48.5,154.471 118.64,187.8Z" style="fill:#db693b;fill-rule:nonzero;"/><g><path d="M511.999,473.799l-251.813,-0l-96.928,-29.19l-151.442,-0c-2.587,-0 -4.684,2.1 -4.684,4.69l-0,8.908c-0,25.45 20.604,46.081 46.021,46.081l99.051,-0c4.948,-0 8.969,-4 9.001,-8.954l0.082,-11.121c0.026,-3.967 3.849,-6.797 7.644,-5.66l90.949,26.68l220.726,-0c17.338,-0.001 31.393,-14.074 31.393,-31.434Z" style="fill:#333;fill-rule:nonzero;"/><path d="M230.504,115.807l9.392,7.36l-8.939,6.157c-3.704,2.552 -4.641,7.627 -2.094,11.336c1.579,2.298 4.126,3.533 6.716,3.533c1.59,0 3.197,-0.465 4.607,-1.436l18.075,-12.45c0.073,-0.05 0.131,-0.104 0.2,-0.155c0.134,-0.099 0.267,-0.199 0.396,-0.307c0.029,-0.025 0.057,-0.051 0.086,-0.077c0.4,-0.344 0.778,-0.722 1.115,-1.154c2.771,-3.545 2.147,-8.669 -1.394,-11.444l-18.125,-14.203c-3.542,-2.775 -8.657,-2.15 -11.429,1.396c-2.771,3.545 -2.146,8.669 1.394,11.444Z" style="fill:#333;fill-rule:nonzero;"/><path d="M230.504,169.173l9.392,7.36l-8.939,6.157c-3.704,2.552 -4.641,7.627 -2.094,11.336c1.579,2.298 4.126,3.533 6.716,3.533c1.59,0 3.197,-0.465 4.607,-1.436l18.075,-12.45c0.078,-0.054 0.128,-0.102 0.198,-0.154c0.586,-0.431 1.129,-0.938 1.599,-1.539c2.771,-3.545 2.147,-8.669 -1.394,-11.444l-18.125,-14.203c-3.542,-2.775 -8.657,-2.15 -11.429,1.396c-2.771,3.546 -2.146,8.669 1.394,11.444Z" style="fill:#333;fill-rule:nonzero;"/><path d="M242.91,244.09l15.963,-15.069c0.031,-0.029 0.048,-0.053 0.077,-0.081c0.103,-0.099 0.198,-0.207 0.295,-0.312c0.061,-0.069 0.127,-0.14 0.178,-0.205c0.357,-0.413 0.691,-0.854 0.968,-1.349c2.198,-3.928 0.799,-8.896 -3.124,-11.096l-20.08,-11.263c-3.921,-2.199 -8.884,-0.8 -11.081,3.128c-2.198,3.928 -0.799,8.896 3.124,11.096l10.405,5.836l-7.894,7.452c-3.272,3.088 -3.424,8.248 -0.339,11.524c1.602,1.701 3.761,2.56 5.925,2.56c2.004,-0 4.011,-0.737 5.583,-2.221Z" style="fill:#333;fill-rule:nonzero;"/><path d="M260.623,291.266l12.478,-17.857c0.001,-0.001 0.002,-0.002 0.002,-0.003l0.097,-0.139c0.231,-0.331 0.412,-0.643 0.569,-0.947c0.009,-0.018 0.018,-0.035 0.027,-0.053c0.165,-0.326 0.299,-0.641 0.383,-0.94c0.034,-0.095 0.082,-0.179 0.113,-0.276c1.356,-4.293 -1.021,-8.873 -5.308,-10.231l-21.945,-6.949c-4.292,-1.357 -8.861,1.022 -10.218,5.314c-1.356,4.293 1.021,8.873 5.308,10.231l11.371,3.601l-6.219,8.901c-2.577,3.689 -1.68,8.772 2.004,11.353c1.422,0.996 3.049,1.473 4.66,1.473c2.567,0.001 5.094,-1.212 6.678,-3.478Z" style="fill:#333;fill-rule:nonzero;"/><path d="M296.226,311.175c0.23,-0.785 0.347,-1.616 0.327,-2.477c-0.1,-4.439 -3.724,-7.969 -8.136,-7.969c-0.061,0 -0.124,0.001 -0.186,0.002l-23.01,0.516c-4.496,0.101 -8.058,3.831 -7.957,8.332c0.1,4.439 3.724,7.969 8.136,7.969c0.061,0 0.124,-0.001 0.186,-0.002l11.924,-0.268l-3.017,10.435c-1.251,4.324 1.237,8.845 5.556,10.097c0.757,0.219 1.518,0.324 2.269,0.324c3.531,0 6.784,-2.32 7.816,-5.887l6.092,-21.072Z" style="fill:#333;fill-rule:nonzero;"/><path d="M328.715,339.595c-0.956,-4.399 -5.289,-7.193 -9.686,-6.233l-22.489,4.899c-4.393,0.957 -7.18,5.299 -6.224,9.699c0.829,3.816 4.2,6.421 7.947,6.421c0.572,0 1.155,-0.061 1.739,-0.188l11.653,-2.539l-0.975,10.82c-0.404,4.484 2.898,8.447 7.377,8.851c0.249,0.022 0.496,0.033 0.741,0.033c4.165,0 7.717,-3.185 8.099,-7.42l1.97,-21.86c0.074,-0.809 0.03,-1.645 -0.152,-2.483Z" style="fill:#333;fill-rule:nonzero;"/></g></svg>