<?xml version="1.0" encoding="UTF-8" standalone="no"?><!DOCTYPE svg PUBLIC "-//W3C//DTD SVG 1.1//EN" "http://www.w3.org/Graphics/SVG/1.1/DTD/svg11.dtd"><svg width="100%" height="100%" viewBox="0 0 512 512" version="1.1" xmlns="http://www.w3.org/2000/svg" xmlns:xlink="http://www.w3.org/1999/xlink" xml:space="preserve" xmlns:serif="http://www.serif.com/" style="fill-rule:evenodd;clip-rule:evenodd;stroke-linejoin:round;stroke-miterlimit:2;"><path class="mid" d="M472.383,245.491c-47.31,-4.849 -93.765,-15.966 -138.141,-33.06l-132.193,-50.92c-6.142,-2.366 -12.755,2.277 -12.538,8.921c0.101,3.087 1.839,5.891 4.432,7.567l53.773,34.759c4.137,2.674 5.937,7.992 3.896,12.475c-1.884,4.137 -6.259,6.378 -10.601,5.647c-73.863,-12.451 -147.725,-24.901 -221.588,-37.352c-2.271,-0.383 -4.483,0.935 -5.22,3.117c-3.236,9.574 -6.233,20.203 -8.631,31.82c-6.139,29.735 -6.332,56.116 -4.701,76.677l511.129,0l0,-15.791c0,-22.609 -17.112,-41.554 -39.617,-43.86Z" style="fill:#8575bf;fill-rule:nonzero;"/><g><path class="dark" d="M65.58,228.465c1.925,-9.326 4.24,-18.001 6.751,-26.019c-17.636,-2.973 -35.272,-5.946 -52.908,-8.918c-2.271,-0.383 -4.483,0.935 -5.22,3.117c-3.236,9.574 -6.233,20.203 -8.631,31.82c-6.139,29.735 -6.332,56.116 -4.701,76.677l60.008,0c-1.631,-20.561 -1.438,-46.942 4.701,-76.677Z" style="fill:#7365a6;fill-rule:nonzero;"/><path class="light" d="M241.011,230.879c3.793,0.639 7.61,-0.989 9.771,-4.169c3.101,-4.562 1.84,-10.781 -2.794,-13.777l-49.522,-32.011c-3.752,3.766 -8.715,9.58 -12.907,17.659c-4.426,8.533 -6.309,16.348 -7.174,21.741c20.876,3.519 41.751,7.038 62.626,10.557Z" style="fill:#9381d4;fill-rule:nonzero;"/></g><g><ellipse cx="56.712" cy="253.54" rx="16.995" ry="16.984" style="fill:#e6e9ed;"/><path d="M483.637,351.115l-454.403,0c-15.664,0 -28.363,-12.698 -28.363,-28.363l0,-17.61l511.129,0l0,17.61c0,15.664 -12.698,28.363 -28.363,28.363Z" style="fill:#e6e9ed;fill-rule:nonzero;"/></g><path d="M60.843,322.761l0,-17.619l-59.972,0l-0,17.619c-0,15.66 12.702,28.354 28.372,28.354l59.972,0c-15.669,-0 -28.372,-12.695 -28.372,-28.354Z" style="fill:#cfd2dc;fill-rule:nonzero;"/></svg>