<?xml version="1.0" encoding="UTF-8" standalone="no"?><!DOCTYPE svg PUBLIC "-//W3C//DTD SVG 1.1//EN" "http://www.w3.org/Graphics/SVG/1.1/DTD/svg11.dtd"><svg width="100%" height="100%" viewBox="0 0 423 512" version="1.1" xmlns="http://www.w3.org/2000/svg" xmlns:xlink="http://www.w3.org/1999/xlink" xml:space="preserve" xmlns:serif="http://www.serif.com/" style="fill-rule:evenodd;clip-rule:evenodd;stroke-linejoin:round;stroke-miterlimit:2;"><g><path d="M270.058,69.542c-1.323,-18.686 -16.949,-33.486 -35.966,-33.486l-48.215,0c-19.018,0 -34.643,14.8 -35.966,33.486l-17.873,10.302l-18.29,-10.302c1.853,-38.723 33.426,-69.542 72.103,-69.542l48.266,0c38.677,0 70.25,30.819 72.102,69.542l-17.944,10.302l-18.217,-10.302Z" style="fill:#c0bcc1;fill-rule:nonzero;"/><path d="M117.714,48.934l40.568,-0c-4.759,5.655 -7.819,12.794 -8.375,20.603l-17.864,10.302l-18.296,-10.291c0.34,-7.191 1.711,-14.114 3.967,-20.614Z" style="fill:#ada8ae;fill-rule:nonzero;"/><path d="M306.216,69.548l-17.946,10.301l-18.213,-10.312c-0.556,-7.809 -3.606,-14.948 -8.365,-20.603l40.558,-0c2.256,6.5 3.626,13.423 3.966,20.614Z" style="fill:#ada8ae;fill-rule:nonzero;"/><path d="M306.97,512l-191.741,0c-32.419,0 -59.358,-24.855 -61.789,-57.01l-24.167,-305.242l180.712,-24.493l182.942,24.493l-24.166,305.242c-2.432,32.155 -29.371,57.01 -61.791,57.01Z" style="fill:#c0bcc1;fill-rule:nonzero;"/><path d="M392.927,149.747l-182.94,-24.487l-168.118,22.78l-12.935,-1.678l24.507,308.628c2.431,32.152 29.37,57.01 61.79,57.01l25.754,0c-32.419,0 -59.359,-24.858 -61.79,-57.01l-20.802,-262.74c-0.949,-11.983 8.519,-22.23 20.539,-22.23l312.387,0l1.608,-20.273Z" style="fill:#ada8ae;fill-rule:nonzero;"/><path d="M411.928,149.42l-401.657,-0c-5.672,-0 -10.271,-4.599 -10.271,-10.271l-0,-0.161c-0,-38.354 31.092,-69.447 69.447,-69.447l283.307,0c38.353,0 69.446,31.092 69.446,69.447l0,0.161c-0.001,5.673 -4.6,10.271 -10.272,10.271Z" style="fill:#c0bcc1;fill-rule:nonzero;"/><g><path d="M30.911,138.992l-0,0.155c-0,5.676 4.594,10.27 10.26,10.27l-30.905,0c-5.666,0 -10.261,-4.594 -10.261,-10.27l0,-0.155c0,-38.354 31.091,-69.444 69.445,-69.444l30.905,-0c-38.354,-0 -69.444,31.09 -69.444,69.444Z" style="fill:#ada8ae;fill-rule:nonzero;"/><path d="M211.1,456.356c-10.315,-0 -18.676,-8.361 -18.676,-18.675l0,-213.612c0,-10.315 8.361,-18.676 18.676,-18.676c10.314,0 18.675,8.361 18.675,18.676l-0,213.612c-0,10.314 -8.361,18.675 -18.675,18.675Z" style="fill:#ada8ae;fill-rule:nonzero;"/><path d="M299.98,456.357c-0.495,-0 -0.995,-0.02 -1.496,-0.06c-10.282,-0.816 -17.956,-9.812 -17.139,-20.094l16.949,-213.612c0.816,-10.281 9.807,-17.957 20.094,-17.139c10.281,0.816 17.956,9.813 17.139,20.094l-16.95,213.612c-0.776,9.778 -8.953,17.199 -18.597,17.199Z" style="fill:#ada8ae;fill-rule:nonzero;"/><path d="M122.219,456.357c-9.645,-0 -17.821,-7.42 -18.597,-17.199l-16.95,-213.612c-0.816,-10.281 6.858,-19.278 17.139,-20.094c10.279,-0.829 19.278,6.857 20.094,17.139l16.95,213.612c0.816,10.282 -6.858,19.278 -17.14,20.094c-0.501,0.041 -1.001,0.06 -1.496,0.06Z" style="fill:#ada8ae;fill-rule:nonzero;"/></g></g></svg>