<svg>
    <path class="no-change" d="M232.13 161.23l-50.85-38.15a12.96 12.96 0 00-15.75.15 41.18 41.18 0 00-14.88 41.28l3.55 16.17" fill="#333f61" fill-rule="nonzero" />
    <path class="light" d="M512 319.25v-.54a53.3 53.3 0 00-42.1-52.12l-56.73-12.16a389.9 389.9 0 01-181.04-93.2c-12.24-2.5-30.24-4.08-47.62 4.08-23.89 11.2-22.27 29.38-46.74 44.33-19.24 11.75-53.66 20.93-74.63 6.98-9.6-6.39-16.85-17.92-38.02-27.58a109.08 109.08 0 00-9.85-3.92l-1.31.59-8.11 29.82A167.02 167.02 0 000 259.34v59.91l6.72 36.13h495.99l9.29-36.13z" fill="none" fill-rule="nonzero" />
    <g fill="#db4d4d" fill-rule="nonzero">
      <path class="mid" d="M458.99 274.43a34.75 34.75 0 01-28.64 34.22l-30.85 5.5a34.75 34.75 0 00-28.64 34.22v3.7l132 2.67 9.14-35.49v-.54a53.3 53.3 0 00-42.1-52.12l-10.47-2.24-.44.06v10.02zM194.15 319.25l-.01-.14a168.88 168.88 0 00-65.6-117.74l-1.97-1.5-.03-.02a79.36 79.36 0 01-84.45-15.23l-6.88-7.98a11.62 11.62 0 00-20.03 4.55l-9.33 34.34A167.02 167.02 0 000 259.34v72.22l194.15-12.31z" />
    </g>
    <path class="dark" d="M73.4 326.9v-67.56c0-14.8 1.96-29.53 5.84-43.8l2.96-10.89a78.95 78.95 0 01-40.11-20.03l-6.88-7.98a11.62 11.62 0 00-20.03 4.55l-9.33 34.34A167.02 167.02 0 000 259.34v72.22l73.4-4.65z" fill="none" fill-rule="nonzero" />
    <path class="no-change" d="M439.66 391.51H44.78A44.8 44.8 0 010 346.69v-27.44h194.15c9.9 0 17.91 8.03 17.91 17.93 0 10 8.19 14.51 18.18 14.36h231.8a34.24 34.24 0 0031.15-21.27 13.4 13.4 0 018.34-7.7l10.47-3.32-1.4 24.66a76.7 76.7 0 01-70.94 47.6z" fill="#e6e9ed" fill-rule="nonzero" />
    <path class="no-change" d="M74.21 346.69v-27.44H0v27.44a44.8 44.8 0 0044.78 44.82H119a44.8 44.8 0 01-44.78-44.82z" fill="#cfd2dc" fill-rule="nonzero" />
    <path class="no-change" d="M118.94 349.62H.1a44.8 44.8 0 0044.67 41.89H160.8a41.87 41.87 0 00-41.85-41.89z" fill="#333f61" fill-rule="nonzero" />
    <path class="no-change" d="M74.37 349.62H.16a44.8 44.8 0 0044.68 41.89h74.2a44.8 44.8 0 01-44.67-41.89z" fill="#253551" fill-rule="nonzero" />
    <g class="mid" fill="none" fill-rule="nonzero">
      <path d="M289.49 249.78a543.48 543.48 0 0022.1 10.07 48.92 48.92 0 0059.27-17.02 389.96 389.96 0 01-138.73-81.6 42.04 42.04 0 00-60.73 1.03l-2.92 3.13c26.03 21.37 82.03 65.67 121 84.4z" />
      <path d="M35.21 199.5l8.57 7.35c6.18 4.45 26.5 17.93 55.63 17.1 29.3-.83 48.9-15.61 54.79-20.41l15.83-16.96a44.2 44.2 0 0162.1-2.5c20.35 18.58 43.39 24.97 68 26.87a390.02 390.02 0 01-68-49.72 44.2 44.2 0 00-62.1 2.5l-15.84 16.95a79.37 79.37 0 01-112.1 3.94l-6.88-7.98a11.62 11.62 0 00-20.03 4.55l-1.22 4.52c8.97 4.23 18.26 10.32 21.25 13.78z" />
    </g>
    <g class="no-change" fill="#333f61" fill-rule="nonzero">
      <path
        d="M250.99 170.2a7.97 7.97 0 00-8.2-7.11c-1.07.02-2.16.1-3.24.15l-16.4.79-6.8.32c-1.68.08-3.33.1-4.9.85a7.94 7.94 0 00-3.8 10.21 7.99 7.99 0 007.8 4.71c4.75-.2 9.5-.45 14.26-.68 1.94-.1 4.01-.41 5.94-.28.47.03.28-.11.44.23.26.6.16 1.67.22 2.3.46 4.9.9 9.8 1.38 14.7.32 3.2 2.2 6 5.32 7.07a7.93 7.93 0 009.93-4.81c.63-1.77.4-3.52.23-5.32l-.68-7.2-1.42-15-.09-.94zM315.1 236.19l-4.65-23.78c-.36-1.89-.93-3.65-2.34-5.06a8.06 8.06 0 00-7.25-2.12c-4.01.72-8.02 1.56-12.02 2.33-3.72.72-7.45 1.39-11.16 2.17-3.37.7-6 3.44-6.35 6.92a7.93 7.93 0 006.1 8.46c1.92.43 3.8-.07 5.7-.44l7.7-1.5 3.48-.67c.43-.08 1.47-.5 1.9-.37.47.15.62 2.39.72 2.92l2.66 13.63c.54 2.76 2.08 5.12 4.75 6.25 3.65 1.54 8 .03 9.91-3.44a7.9 7.9 0 00.84-5.3z"
      />
    </g>
    </svg>