<!-- SHOE SVG CODE -->
<svg display="none" viewBox="0 0 512 512" xmlns="http://www.w3.org/2000/svg" fill-rule="evenodd" clip-rule="evenodd" stroke-linejoin="round" stroke-miterlimit="2">
  <symbol id="nike">
    <defs />
    <path class="no-change" d="M232.13 161.23l-50.85-38.15a12.96 12.96 0 00-15.75.15 41.18 41.18 0 00-14.88 41.28l3.55 16.17" fill="#333f61" fill-rule="nonzero" />
    <path class="light" d="M512 319.25v-.54a53.3 53.3 0 00-42.1-52.12l-56.73-12.16a389.9 389.9 0 01-181.04-93.2c-12.24-2.5-30.24-4.08-47.62 4.08-23.89 11.2-22.27 29.38-46.74 44.33-19.24 11.75-53.66 20.93-74.63 6.98-9.6-6.39-16.85-17.92-38.02-27.58a109.08 109.08 0 00-9.85-3.92l-1.31.59-8.11 29.82A167.02 167.02 0 000 259.34v59.91l6.72 36.13h495.99l9.29-36.13z" fill="none" fill-rule="nonzero" />
    <g fill="#db4d4d" fill-rule="nonzero">
      <path class="mid" d="M458.99 274.43a34.75 34.75 0 01-28.64 34.22l-30.85 5.5a34.75 34.75 0 00-28.64 34.22v3.7l132 2.67 9.14-35.49v-.54a53.3 53.3 0 00-42.1-52.12l-10.47-2.24-.44.06v10.02zM194.15 319.25l-.01-.14a168.88 168.88 0 00-65.6-117.74l-1.97-1.5-.03-.02a79.36 79.36 0 01-84.45-15.23l-6.88-7.98a11.62 11.62 0 00-20.03 4.55l-9.33 34.34A167.02 167.02 0 000 259.34v72.22l194.15-12.31z" />
    </g>
    <path class="dark" d="M73.4 326.9v-67.56c0-14.8 1.96-29.53 5.84-43.8l2.96-10.89a78.95 78.95 0 01-40.11-20.03l-6.88-7.98a11.62 11.62 0 00-20.03 4.55l-9.33 34.34A167.02 167.02 0 000 259.34v72.22l73.4-4.65z" fill="none" fill-rule="nonzero" />
    <path class="no-change" d="M439.66 391.51H44.78A44.8 44.8 0 010 346.69v-27.44h194.15c9.9 0 17.91 8.03 17.91 17.93 0 10 8.19 14.51 18.18 14.36h231.8a34.24 34.24 0 0031.15-21.27 13.4 13.4 0 018.34-7.7l10.47-3.32-1.4 24.66a76.7 76.7 0 01-70.94 47.6z" fill="#e6e9ed" fill-rule="nonzero" />
    <path class="no-change" d="M74.21 346.69v-27.44H0v27.44a44.8 44.8 0 0044.78 44.82H119a44.8 44.8 0 01-44.78-44.82z" fill="#cfd2dc" fill-rule="nonzero" />
    <path class="no-change" d="M118.94 349.62H.1a44.8 44.8 0 0044.67 41.89H160.8a41.87 41.87 0 00-41.85-41.89z" fill="#333f61" fill-rule="nonzero" />
    <path class="no-change" d="M74.37 349.62H.16a44.8 44.8 0 0044.68 41.89h74.2a44.8 44.8 0 01-44.67-41.89z" fill="#253551" fill-rule="nonzero" />
    <g class="mid" fill="none" fill-rule="nonzero">
      <path d="M289.49 249.78a543.48 543.48 0 0022.1 10.07 48.92 48.92 0 0059.27-17.02 389.96 389.96 0 01-138.73-81.6 42.04 42.04 0 00-60.73 1.03l-2.92 3.13c26.03 21.37 82.03 65.67 121 84.4z" />
      <path d="M35.21 199.5l8.57 7.35c6.18 4.45 26.5 17.93 55.63 17.1 29.3-.83 48.9-15.61 54.79-20.41l15.83-16.96a44.2 44.2 0 0162.1-2.5c20.35 18.58 43.39 24.97 68 26.87a390.02 390.02 0 01-68-49.72 44.2 44.2 0 00-62.1 2.5l-15.84 16.95a79.37 79.37 0 01-112.1 3.94l-6.88-7.98a11.62 11.62 0 00-20.03 4.55l-1.22 4.52c8.97 4.23 18.26 10.32 21.25 13.78z" />
    </g>
    <g class="no-change" fill="#333f61" fill-rule="nonzero">
      <path
        d="M250.99 170.2a7.97 7.97 0 00-8.2-7.11c-1.07.02-2.16.1-3.24.15l-16.4.79-6.8.32c-1.68.08-3.33.1-4.9.85a7.94 7.94 0 00-3.8 10.21 7.99 7.99 0 007.8 4.71c4.75-.2 9.5-.45 14.26-.68 1.94-.1 4.01-.41 5.94-.28.47.03.28-.11.44.23.26.6.16 1.67.22 2.3.46 4.9.9 9.8 1.38 14.7.32 3.2 2.2 6 5.32 7.07a7.93 7.93 0 009.93-4.81c.63-1.77.4-3.52.23-5.32l-.68-7.2-1.42-15-.09-.94zM315.1 236.19l-4.65-23.78c-.36-1.89-.93-3.65-2.34-5.06a8.06 8.06 0 00-7.25-2.12c-4.01.72-8.02 1.56-12.02 2.33-3.72.72-7.45 1.39-11.16 2.17-3.37.7-6 3.44-6.35 6.92a7.93 7.93 0 006.1 8.46c1.92.43 3.8-.07 5.7-.44l7.7-1.5 3.48-.67c.43-.08 1.47-.5 1.9-.37.47.15.62 2.39.72 2.92l2.66 13.63c.54 2.76 2.08 5.12 4.75 6.25 3.65 1.54 8 .03 9.91-3.44a7.9 7.9 0 00.84-5.3z"
      />
    </g>
  </symbol>
  <symbol id="converse">
    <defs />
    <path class="mid" d="M0 336.5v-62.9c0-11.63 2.71-23.1 7.92-33.5a74.86 74.86 0 007.93-33.53V126c0-3.4 2.75-6.16 6.15-6.16h137.55c8.97 0 17.37 4.4 22.49 11.77l17.45 25.12a286.45 286.45 0 00174.8 116.63l105.1 22.7A41.37 41.37 0 01512 336.5" fill="none" fill-rule="nonzero" />
    <path class="no-change" d="M496.82 392.16H18.22A18.23 18.23 0 010 373.92V336.5h512v40.46c0 8.4-6.8 15.2-15.18 15.2z" fill="#f2edec" fill-rule="nonzero" />
    <path class="no-change" d="M335.58 356.42H0v15.82h335.58a7.9 7.9 0 000-15.82z" fill="#57676e" fill-rule="nonzero" />
    <path class="dark" d="M18.47 246.66l-10.54-6.57A74.85 74.85 0 000 273.61v61.1l90.81 1.8-.93-2.5a174.94 174.94 0 00-71.4-87.35z" fill="none" fill-rule="nonzero" />
    <path class="no-change" d="M479.38 296.05L409.68 281v55.5H512a41.37 41.37 0 00-32.62-40.45z" fill="#f2edec" fill-rule="nonzero" />
    <g class="dark" fill="none" fill-rule="nonzero">
      <path d="M409.47 280.95l-35.19-7.6a286.46 286.46 0 01-174.8-116.62l-17.44-25.12a27.37 27.37 0 00-22.48-11.77h-42.58a405.46 405.46 0 00107.98 130.52c73.05 57.63 147.63 75.23 184.71 81.4v-49.82l-.2-.99zM409.67 331.76v4.74-4.74z" />
    </g>
    <path class="" d="M94.88 177.9l9.82 19.95c.15.3.44.5.77.55l21.98 3.2c.83.12 1.16 1.15.56 1.74l-15.9 15.52c-.24.23-.35.57-.3.9l3.76 21.91c.14.83-.73 1.47-1.48 1.07L94.44 232.4c-.3-.16-.65-.16-.95 0l-19.65 10.34c-.75.4-1.62-.24-1.48-1.07l3.76-21.91c.05-.33-.06-.67-.3-.9l-15.9-15.53c-.6-.58-.27-1.6.56-1.73l21.98-3.2c.33-.04.62-.25.77-.55l9.82-19.94a1.02 1.02 0 011.83 0z" fill="#f2edec" fill-rule="nonzero" />
    <g class="" fill="#f2edec" fill-rule="nonzero">
      <path
        d="M195.12 193.81l21.04-14.12c.23-.15.45-.31.66-.49-3.42-4-6.73-8.11-9.94-12.32l-20.56 13.79a7.92 7.92 0 008.8 13.14zM239.18 202.63c-3.84-3.6-7.58-7.3-11.23-11.12l-.14.14-16.43 16.99a7.92 7.92 0 005.68 13.41c2.06 0 4.13-.8 5.68-2.4l16.42-17 .02-.02zM167.8 165.1c.95 0 1.93-.18 2.88-.56l25.14-9.88a7.92 7.92 0 001.62-.88l-9.14-13.16-23.4 9.2a7.92 7.92 0 002.9 15.27zM237.94 240.67a7.86 7.86 0 0011.12-1.01l13.3-15.98c.27-.34.51-.69.72-1.05a286.86 286.86 0 01-12.26-9.72c-.21.2-.42.41-.6.64l-13.3 15.98a7.92 7.92 0 001.02 11.14zM265.33 262.17a7.86 7.86 0 0010.76-3L287.44 239a287.05 287.05 0 01-13.32-8.51l-.3.46-11.5 20.44a7.92 7.92 0 003 10.77zM295.1 279.65a7.88 7.88 0 0010.03-4.94l7.56-22.23a286.15 286.15 0 01-14.16-7.14c-.18.35-.35.72-.48 1.1l-7.88 23.17a7.92 7.92 0 004.93 10.04zM327.1 294.5a7.9 7.9 0 009.44-5.97l5.46-24.16c-4.96-1.7-9.85-3.53-14.69-5.5-.3.6-.55 1.24-.7 1.93l-5.48 24.23a7.91 7.91 0 005.96 9.47zM355.01 272.61l-1.58 21.09a7.9 7.9 0 1015.76 1.18l1.58-21.08c.03-.43.02-.84-.02-1.25a286.96 286.96 0 01-14.45-3.7 7.88 7.88 0 00-1.29 3.76z"
      />
    </g>
  </symbol>
  <symbol id="crocs">
    <defs />
    <path class="light" d="M511.97 322.02v-26.54c0-26-22.8-46.05-48.53-42.69a250.18 250.18 0 01-199.67-62.01l-22-19.77a.93.93 0 00-1.25.01 331.9 331.9 0 01-213.1 88.87l-21.07.84A6.62 6.62 0 000 267.35v56.2l511.97-1.53z" fill="none" fill-rule="nonzero" />
    <path class="mid" d="M31.53 323.46v-63.78c-1.37.07-2.74.15-4.1.2l-21.08.84A6.62 6.62 0 000 267.35v56.2l31.53-.09z" fill="none" fill-rule="nonzero" />
    <path
      class="mid"
      d="M0 290.76v28.8c0 23.48 17.3 42.9 39.83 46.17a5.59 5.59 0 006.39-5.53v-2c0-4.37 3.36-8.18 7.72-8.3a7.97 7.97 0 018.2 7.97v2.75a5.57 5.57 0 005.56 5.57l28.98.03c3.08 0 5.57-2.5 5.57-5.59v-2.43c0-4.37 3.36-8.18 7.72-8.31a7.97 7.97 0 018.2 7.97v2.78c0 3.08 2.5 5.58 5.57 5.58h30.07a8.3 8.3 0 003.77-.92 105.81 105.81 0 0195.3-.47l1.08.53c1.14.57 2.4.86 3.66.86 0 0 4.58 0 8.46-.02 2.93 0 5.3-2.39 5.3-5.33v-3.01c0-4.37 3.37-8.18 7.72-8.31a7.97 7.97 0 018.2 7.97v2.56a6.1 6.1 0 006.1 6.11h28.7a5.32 5.32 0 005.32-5.33v-2.66c0-4.37 3.36-8.18 7.71-8.3a7.97 7.97 0 018.21 7.97v3.02a5.33 5.33 0 005.32 5.33h33.62a5.33 5.33 0 005.32-5.33v-.92c0-4.37 3.36-8.18 7.72-8.31a7.97 7.97 0 018.2 7.97v1.23a5.32 5.32 0 005.31 5.33h36.75a5.32 5.32 0 005.32-5.33v-.54c0-4.36 3.36-8.17 7.71-8.3a7.97 7.97 0 018.2 7.97l.02.6a5.34 5.34 0 006.06 5.2c21.68-2.9 38.98-21.35 39.08-43.77h.03c-355.24 0-216.73-31.26-512-31.26z"
      fill="none"
      fill-rule="nonzero"
    />
    <path class="dark" d="M47.05 354.54a46.57 46.57 0 01-15.74-34.97v-28.68c-9.87-.08-20.28-.13-31.31-.13v28.8c0 23.48 17.3 42.9 39.83 46.17a5.59 5.59 0 006.39-5.53v-2c0-1.3.3-2.54.83-3.66z" fill="none" fill-rule="nonzero" />
    <path class="mid" d="M160.16 204.01c-2.6-.3-5.13-.25-7.57.1-4.8.68-9.68-.45-13.77-3.05l-85.53-54.19a7.12 7.12 0 00-9.82 2.25l-10.85 17.31a7.15 7.15 0 002.24 9.85l85.53 54.2a21.03 21.03 0 018.64 11.44 29.1 29.1 0 0027.68 20.19c17.1 0 30.75-14.8 28.91-32.31A29.17 29.17 0 00160.16 204z" fill="none" fill-rule="nonzero" />
    <path class="dark" d="M170.5 257.85c-13.8 2.42-30.37-2.2-32.5-19.03-.88-7.04-4.67-12.6-8.84-15.25l-59.74-38.39A33.24 33.24 0 0155.2 148.3l.05-.19-1.95-1.23a7.12 7.12 0 00-9.82 2.25l-10.85 17.31a7.15 7.15 0 002.24 9.85l85.53 54.2a21.03 21.03 0 018.64 11.44 29.1 29.1 0 0027.68 20.19c5.56 0 10.76-1.58 15.18-4.3-.46.02-.93-.04-1.38.04z" fill="none" fill-rule="nonzero" />
    <g class="mid" fill="none">
      <ellipse cx="270.51" cy="232.96" rx="7.96" ry="7.98" />
      <ellipse cx="241.15" cy="209.08" rx="7.96" ry="7.98" />
      <ellipse cx="306.06" cy="252.26" rx="7.96" ry="7.98" />
      <ellipse cx="243.81" cy="282.71" rx="7.96" ry="7.98" />
      <ellipse cx="287.31" cy="290.69" rx="7.96" ry="7.98" />
      <ellipse cx="342.11" cy="266.76" rx="7.96" ry="7.98" />
      <ellipse cx="380.44" cy="276.2" rx="7.96" ry="7.98" />
      <ellipse cx="419.65" cy="278.68" rx="7.96" ry="7.98" />
      <ellipse cx="458.86" cy="278.64" rx="7.96" ry="7.98" />
      <ellipse cx="318.27" cy="282.71" rx="7.96" ry="7.98" />
      <ellipse cx="358.03" cy="294.55" rx="7.96" ry="7.98" />
      <ellipse cx="398.58" cy="296.76" rx="7.96" ry="7.98" />
      <ellipse cx="439.98" cy="298" rx="7.96" ry="7.98" />
      <ellipse cx="483.5" cy="298" rx="7.96" ry="7.98" />
      <ellipse cx="274.61" cy="265.03" rx="7.96" ry="7.98" />
      <ellipse cx="235.84" cy="247.53" rx="7.96" ry="7.98" />
    </g>
    <ellipse class="light" cx="156.71" cy="232.96" rx="15.04" ry="15.07" fill="none" />
  </symbol>
  <symbol id="vans">
    <defs />
    <path class="mid" d="M472.38 245.5a536.47 536.47 0 01-138.14-33.07l-132.2-50.92a9.22 9.22 0 00-12.53 8.92 9.49 9.49 0 004.43 7.57l53.78 34.76c4.13 2.67 5.93 7.99 3.9 12.47a9.84 9.84 0 01-10.6 5.65l-221.6-37.35a4.68 4.68 0 00-5.22 3.12 269.5 269.5 0 00-8.63 31.82 272.4 272.4 0 00-4.7 76.67H512v-15.79a44.1 44.1 0 00-39.62-43.86z" fill="none" fill-rule="nonzero" />
    <g fill-rule="nonzero">
      <path class="dark" d="M65.58 228.47c1.93-9.33 4.24-18 6.75-26.02l-52.9-8.92a4.68 4.68 0 00-5.23 3.11 269.5 269.5 0 00-8.63 31.82 272.4 272.4 0 00-4.7 76.68h60a272.4 272.4 0 014.71-76.67z" fill="none" />
      <path class="light" d="M241.01 230.88a9.84 9.84 0 006.98-17.95l-49.52-32a72.05 72.05 0 00-20.09 39.4l62.63 10.55z" fill="none" />
    </g>
    <g class="no-change" fill="#e6e9ed">
      <ellipse cx="56.71" cy="253.54" rx="17" ry="16.98" />
      <path d="M483.64 351.12H29.24A28.36 28.36 0 01.86 322.75v-17.6H512v17.6a28.36 28.36 0 01-28.36 28.37z" fill-rule="nonzero" />
    </g>
    <path class="no-change" d="M60.84 322.76v-17.62H.87v17.62a28.36 28.36 0 0028.37 28.36h59.98a28.36 28.36 0 01-28.38-28.36z" fill="#cfd2dc" fill-rule="nonzero" />
  </symbol>
  <symbol id="drmartens">
    <defs />
    <path class="no-change" d="M40.7 93.36a8.14 8.14 0 01-8.1-7.48c-.04-.33-1.26-12.13-10.06-21.45-2.52-2.68-4.98-4.26-7.58-5.94-4.46-2.87-9.5-6.13-12.64-13.73-1.47-3.54-4.4-12.82.03-22.41C6.37 13.62 16.74 5.27 28.03 6.99 39.3 8.72 48.85 19.4 48.85 30.3v54.92a8.15 8.15 0 01-8.15 8.15zM25.04 23.07c-2.69 0-6.39 2.8-7.91 6.12-1.78 3.84-.27 8.12.23 9.34 1.13 2.75 2.53 3.75 6.41 6.25 2.53 1.63 5.57 3.6 8.8 6.63V30.3c0-2.56-3.53-6.66-7-7.19a3.5 3.5 0 00-.53-.04z" fill="#333" fill-rule="nonzero" />
    <path class="mid" d="M461.59 386.08h-35.53c-98.82 0-178.93-80.2-178.93-179.15V89a35.5 35.5 0 00-35.47-35.53H42.56a10.24 10.24 0 00-10.24 10.25v224.26c0 9.3-3.69 18.21-10.25 24.79a35.07 35.07 0 00-10.25 24.78v107.05l20.5 20.82 157.47-.16 72.12 25.77h226.48l23.6-17.24v-37.24a50.45 50.45 0 00-50.4-50.48z" fill="none" fill-rule="nonzero" />
    <path class="dark" d="M329.71 402.68l-.62 2.43 43.97-27.02c-72.94-22.61-125.93-90.7-125.93-171.16V89.01a35.5 35.5 0 00-35.47-35.53H42.56a10.24 10.24 0 00-10.24 10.25v25.74l2.42.56h159.23c9.44 0 17.1 7.67 17.1 17.13v107.72c0 82.9 48.5 154.47 118.64 187.8z" fill="none" fill-rule="nonzero" />
    <g class="no-change" fill="#333" fill-rule="nonzero">
      <path
        d="M512 473.8H260.19l-96.93-29.2H11.82a4.69 4.69 0 00-4.69 4.7v8.9a46.05 46.05 0 0046.02 46.09h99.05a9 9 0 009-8.96l.09-11.12a5.94 5.94 0 017.64-5.66l90.95 26.68h220.73A31.41 31.41 0 00512 473.8zM230.5 115.8l9.4 7.37-8.94 6.15a8.16 8.16 0 009.23 13.44l18.07-12.45.2-.16.4-.3.08-.08a8.16 8.16 0 00-.28-12.6l-18.12-14.2a8.16 8.16 0 00-10.03 12.84zM230.5 169.17l9.4 7.36-8.94 6.16a8.16 8.16 0 009.23 13.43l18.07-12.45.2-.15a8.13 8.13 0 00.2-12.98l-18.12-14.2a8.16 8.16 0 00-10.03 12.84zM242.91 244.09l15.96-15.07.08-.08.3-.31.17-.2a8.16 8.16 0 00-2.16-12.44L237.2 204.7a8.16 8.16 0 00-7.96 14.22l10.4 5.84-7.89 7.45a8.16 8.16 0 0011.17 11.86zM260.62 291.27l12.48-17.86.1-.14c.23-.33.41-.65.57-.95 0-.02.02-.04.03-.05.16-.33.3-.64.38-.94l.11-.28a8.15 8.15 0 00-5.3-10.23l-21.95-6.95a8.14 8.14 0 10-4.91 15.55l11.37 3.6-6.22 8.9a8.16 8.16 0 006.66 12.82c2.57 0 5.1-1.2 6.68-3.47zM296.23 311.18a8.15 8.15 0 00-8-10.44l-23 .5a8.15 8.15 0 00.36 16.3l11.92-.26-3.02 10.43a8.15 8.15 0 0015.64 4.54l6.1-21.07zM328.71 339.6a8.14 8.14 0 00-9.68-6.24l-22.49 4.9A8.15 8.15 0 00300 354.2l11.66-2.54-.98 10.82a8.15 8.15 0 1016.22 1.47l1.97-21.86c.07-.81.03-1.65-.15-2.48z"
      />
    </g>
  </symbol>
  <symbol id="cart">
    <defs />
    <circle cx="430.73" cy="479.49" r="24.38" fill="#5d5360" />
    <path d="M422.6 422.6v56.9a8.12 8.12 0 1016.26 0v-56.9H422.6z" fill="#aea8af" />
    <circle cx="154.41" cy="479.49" r="24.38" fill="#5d5360" />
    <path d="M146.29 422.6v56.9a8.12 8.12 0 1016.25 0v-56.9h-16.25z" fill="#aea8af" />
    <g fill="#c0bcc1">
      <path
        d="M455.11 414.48H138.25c-2.77 0-5.23-1.32-6.76-3.63s-1.8-5.1-.72-7.65l33.99-80.72c-5.11-1.82-10.26-3.54-15.34-5.48l-33.63 79.9a24.32 24.32 0 002.16 22.94 24.31 24.31 0 0020.3 10.9h316.86a8.12 8.12 0 100-16.26zM495.45 178.8l.6-16.26-59.9-2.18 3.99-49.49-16.2-1.3-4.05 50.2-64.13-2.34 1.42-53.6-16.25-.43-1.42 53.44-66.08-2.4-3.83-62.24-16.23 1 3.74 60.64-70.07-2.55-12.58-67.5-15.98 2.99 11.9 63.9-72.55-2.64-.59 16.25 76.2 2.77 12.51 67.2-64.23 1.43.37 16.24 66.88-1.48 13.17 70.67 15.98-2.98-12.68-68.06 57.53-1.27 4.04 65.6 16.22-1-4-64.97 57.87-1.28-1.59 59.67 16.25.44 1.62-60.47 59.62-1.33-4.46 55.44 16.2 1.3 4.6-57.1 56.75-1.26-.36-16.25-55.08 1.23 4.2-52.24 60.6 2.2zm-293.02 55.1l-12.34-66.23 68.03 2.48 3.85 62.42-59.55 1.33zm75.8-1.69l-3.8-61.47 64.64 2.36-1.54 57.8-59.3 1.31zm136.07-3.02l-60.5 1.34 1.52-56.84 63.27 2.3-4.28 53.2z"
      />
    </g>
    <path d="M169.8 331.4a40.37 40.37 0 01-38.82-28.9L62.31 75.98a8.12 8.12 0 018.52-10.45l433.8 40.17a8.14 8.14 0 017.3 9.14l-21.8 167.21a32.63 32.63 0 01-29.87 28.22l-287.41 21.03c-1.02.07-2.05.1-3.06.1zM81.36 82.82l65.17 214.98a24.3 24.3 0 0025.12 17.27l287.41-21.02a16.32 16.32 0 0014.94-14.12l20.71-158.84L81.37 82.82z" fill="#c9c6ca" />
    <path d="M49.46 80.57l-44.7-44.7a16.25 16.25 0 1122.99-22.99l44.7 44.7a16.26 16.26 0 01-22.99 22.99z" fill="#e6646e" />
    <path d="M27.75 12.89c-.42-.42-.89-.73-1.34-1.1-.44.37-.92.68-1.33 1.1a16.26 16.26 0 000 22.98l44.7 44.7c.41.42.88.73 1.33 1.1.45-.37.92-.68 1.34-1.1a16.26 16.26 0 000-22.98l-44.7-44.7z" fill="#ff8087" />
  </symbol>
</svg>